<?xml version="1.0"?>
<svg width="64" height="64" xmlns="http://www.w3.org/2000/svg" xmlns:svg="http://www.w3.org/2000/svg">

 <g class="layer">
  <title>Layer 1</title>
  <path d="m31.99,-0.01c-2.85,6.99 -4.56,11.56 -7.74,18.34c1.95,2.06 4.34,4.46 8.2,7.17c-4.16,-1.71 -7,-3.44 -9.13,-5.22c-4.06,8.47 -10.42,20.53 -23.33,43.73c10.15,-5.86 18.01,-9.47 25.35,-10.85c-0.32,-1.35 -0.5,-2.82 -0.48,-4.35l0.01,-0.32c0.16,-6.5 3.54,-11.5 7.55,-11.16s7.12,5.89 6.95,12.39a18.36,18.36 0 0 1 -0.4,3.49c7.25,1.42 15.03,5.02 25.03,10.8l-5.42,-10.03c-2.65,-2.05 -5.41,-4.73 -11.05,-7.62c3.88,1.01 6.65,2.17 8.8,3.47c-17.1,-31.84 -18.48,-36.07 -24.35,-49.84l0.01,0z" fill="#b4bdfe" fill-rule="evenodd" id="svg_1"/>
 </g>
</svg>